<svg width="48" height="48" viewBox="0 0 48 48" fill="none" xmlns="http://www.w3.org/2000/svg">
<g clip-path="url(#clip0)">
<path d="M14.3775 10.9757V2.88291C14.3775 1.59275 15.4327 0.53717 16.7233 0.53717H45.6542C46.9444 0.53717 48 1.59275 48 2.88291V4.40763V34.9804V36.0364C48 36.8961 47.4918 37.7171 46.7489 38.108L28.9212 47.335C28.1393 47.7259 27.201 47.179 27.201 46.2794V37.2874H16.7233C15.4327 37.2874 14.3775 36.2322 14.3775 34.9417V22.1183H19.069V31.4231C19.069 32.0877 19.5773 32.5959 20.2419 32.5959H27.1619V20.5545V12.9309V12.6963C27.1619 11.8362 27.6701 11.0152 28.413 10.6242L38.9297 5.22903H20.2419C19.5773 5.22903 19.069 5.73728 19.069 6.4019V11.0152H14.3775V10.9757Z" fill="#3ADFCE"/>
<path d="M8.35651 7.14393L0.732805 14.7676C-0.244591 15.745 -0.244591 17.1915 0.732805 18.1689L8.35651 25.7925C9.33391 26.7699 10.8199 26.8094 11.7973 25.832C12.7353 24.8941 12.6184 23.3299 11.7188 22.3916L8.27871 18.9903H21.61C22.2743 18.9903 22.9393 18.7166 23.3693 18.2084C24.464 17.0355 24.1904 14.9634 22.7829 14.1815C22.431 13.986 22.001 13.8688 21.61 13.8688H8.27832C8.27832 13.8688 11.6793 10.4674 11.7184 10.4674C12.618 9.56825 12.7353 7.96533 11.797 7.06613C10.8586 6.12784 9.33391 6.16654 8.35651 7.14393Z" fill="#3ADFCE"/>
</g>
<defs>
<clipPath id="clip0">
<rect width="48" height="48" fill="white" transform="matrix(-1 0 0 1 48 0)"/>
</clipPath>
</defs>
</svg>
